<?xml version="1.0" encoding="UTF-8" standalone="no"?>
<!-- Created with Inkscape (http://www.inkscape.org/) -->

<svg
   width="2000"
   height="2000"
   viewBox="0 0 666.66667 666.66667"
   version="1.1"
   id="svg1"
   xml:space="preserve"
   inkscape:export-filename="LogoTesis.svg"
   inkscape:export-xdpi="96"
   inkscape:export-ydpi="96"
   inkscape:version="1.3.1 (91b66b0783, 2023-11-16)"
   sodipodi:docname="LogoTesis-Inkscape.svg"
   xmlns:inkscape="http://www.inkscape.org/namespaces/inkscape"
   xmlns:sodipodi="http://sodipodi.sourceforge.net/DTD/sodipodi-0.dtd"
   xmlns="http://www.w3.org/2000/svg"
   xmlns:svg="http://www.w3.org/2000/svg"><sodipodi:namedview
     id="namedview1"
     pagecolor="#505050"
     bordercolor="#ffffff"
     borderopacity="1"
     inkscape:showpageshadow="0"
     inkscape:pageopacity="0"
     inkscape:pagecheckerboard="1"
     inkscape:deskcolor="#d1d1d1"
     inkscape:document-units="mm"
     inkscape:zoom="0.22627417"
     inkscape:cx="835.26989"
     inkscape:cy="1084.967"
     inkscape:window-width="1600"
     inkscape:window-height="837"
     inkscape:window-x="-8"
     inkscape:window-y="116"
     inkscape:window-maximized="1"
     inkscape:current-layer="layer1" /><defs
     id="defs1" /><g
     inkscape:label="Capa 1"
     inkscape:groupmode="layer"
     id="layer1"><circle
       style="display:inline;fill:#3f729f;fill-opacity:1;fill-rule:nonzero;stroke-width:1.9191;stroke-dasharray:none;paint-order:fill markers stroke"
       id="circle2"
       cx="333.85291"
       cy="-332.81375"
       transform="scale(1,-1)"
       r="332.81375" /><path
       id="circle2-2"
       style="display:inline;fill:#537c59;fill-opacity:1;fill-rule:nonzero;stroke-width:1.9191;stroke-dasharray:none;paint-order:fill markers stroke"
       d="m 435.47266,-136.57357 c -4.00411,0.0472 -8.82547,-2.19476 -14.95117,-6.82357 -4.88958,-3.69473 -20.33257,-19.35461 -32.62696,-33.08528 -11.25712,-12.57224 -21.11425,-22.30443 -23.65299,-23.35222 -1.98785,-0.82047 -3.70688,-0.80945 -9.00781,0.0566 -9.03425,1.47607 -13.25388,1.39724 -24.15691,-0.45247 -13.47533,-2.28611 -16.72562,-2.1438 -22.95963,1.00521 -5.9083,2.98448 -13.44687,9.43481 -35.83984,30.66536 -8.71406,8.2617 -17.71717,16.06258 -20.0625,17.38347 -9.64481,5.43194 -14.92102,1.90119 -17.0267,-11.39388 -1.23337,-7.78746 -0.57966,-13.54507 2.85938,-25.19597 6.1421,-20.80842 7.93575,-27.52744 10.69596,-40.06185 5.08245,-23.08 5.62706,-24.90107 9.77865,-32.71354 l 4.05924,-7.63932 0.0592,-18.89779 c 0.0588,-18.7693 0.0446,-18.92749 -2.08138,-23.32031 -2.43379,-5.0288 -6.39179,-9.19183 -24.88086,-26.16797 -7.20547,-6.61586 -14.99708,-14.11192 -17.31446,-16.6582 -6.48387,-7.12431 -12.36943,-11.48038 -23.79557,-17.61133 -11.21482,-6.01757 -35.11997,-16.14165 -41.18945,-17.44401 -2.02673,-0.43488 -6.19421,-1.19561 -9.26172,-1.69076 -5.78048,-0.93307 -31.00585,-9.47409 -46.790367,-15.8431 -4.976915,-2.00816 -11.49884,-4.52476 -14.493489,-5.59179 -16.258455,-5.79308 -38.366133,-17.30513 -51.305339,-26.7168 -3.312802,-2.40965 -6.847683,-5.35504 -10.347656,-8.22396 A 332.81375,332.81375 0 0 1 288.4707,-662.93881 l -0.0234,27.08334 3.9681,5.71875 c 2.18247,3.14519 7.22682,11.14638 11.20963,17.7806 18.46202,30.75232 20.11085,33.22786 27.51953,41.3138 4.10277,4.47781 7.70889,8.14128 8.01367,8.14128 0.30478,0 3.14589,3.1665 6.31381,7.03645 16.41673,20.05484 35.59629,52.9437 39.74284,68.15105 2.06868,7.58682 2.34498,21.35546 1.1927,59.51237 l -0.70442,23.32552 2.9388,6.5638 c 1.61647,3.61035 3.87405,9.57922 5.01693,13.26367 2.12628,6.85479 7.73372,32.46694 9.47721,43.28776 1.63741,10.16243 6.30084,27.32772 10.50586,38.66927 3.80072,10.25107 6.59963,20.17544 9.53125,33.79558 0.85342,3.9649 2.24532,7.48051 3.94857,9.97526 1.44664,2.1189 3.25342,4.79171 4.01562,5.93945 0.7622,1.14774 1.9871,5.88665 2.72136,10.5306 0.73425,4.64394 3.54127,17.30931 6.23828,28.14518 6.83661,27.46767 8.08642,33.71297 8.76302,43.80599 1.10802,16.52873 -1.13315,26.76829 -6.95703,31.78971 -1.91987,1.65534 -4.02788,2.50747 -6.43034,2.53581 z"
       transform="scale(1,-1)" /><path
       id="path1"
       style="display:inline;opacity:1;fill:#e4bb28;fill-opacity:1;stroke-width:1.92091;paint-order:fill markers stroke"
       d="M 333.50776,0 A 333.15891,333.15891 0 0 0 77.851766,120.15734 332.23717,332.23717 0 0 1 315.07956,19.350139 332.23717,332.23717 0 0 1 647.31653,351.5871 332.23717,332.23717 0 0 1 546.50933,588.81488 333.15891,333.15891 0 0 0 666.66667,333.15889 333.15891,333.15891 0 0 0 333.50776,0 Z" /></g></svg>
